<svg width="20" height="20" viewBox="0 0 20 20" fill="none" xmlns="http://www.w3.org/2000/svg">
<path opacity="0.987" fill-rule="evenodd" clip-rule="evenodd" d="M8.8205 0.0868224C9.89361 -0.0289408 10.5286 -0.0289408 11.6816 0.0868224C13.7226 0.37851 15.6147 1.28945 17.0842 2.68792C16.0912 3.59421 15.1112 4.51373 14.1446 5.44623C12.2934 3.9313 10.2271 3.58163 7.94573 4.39721C6.27218 5.14038 5.10681 6.3447 4.44963 8.01017C3.37569 7.23817 2.31575 6.44819 1.27027 5.64059C1.19761 5.60367 1.11463 5.59015 1.03345 5.60201C2.69417 2.51023 5.28936 0.671355 8.81902 0.0853931" fill="#F44336"/>
<path opacity="0.997" fill-rule="evenodd" clip-rule="evenodd" d="M1.03056 5.60197C1.11443 5.58958 1.19387 5.60245 1.26886 5.64056C2.31433 6.44815 3.37428 7.23813 4.44821 8.01013C4.27922 8.65906 4.17269 9.32168 4.12998 9.98954C4.16649 10.6355 4.27257 11.2696 4.44821 11.8918L1.11048 14.4571C-0.343021 11.5245 -0.369664 8.57275 1.03056 5.60197Z" fill="#FFC107"/>
<path opacity="0.999" fill-rule="evenodd" clip-rule="evenodd" d="M16.9258 17.5642C15.8865 16.6792 14.7985 15.8491 13.6665 15.0774C14.8013 14.3038 15.49 13.2424 15.7328 11.8932H10.1719V8.16453C13.3789 8.1388 16.5844 8.165 19.7884 8.24313C20.3962 11.4302 19.6942 14.3038 17.6821 16.8639C17.4429 17.1095 17.1895 17.3432 16.9258 17.5642Z" fill="#448AFF"/>
<path opacity="0.993" fill-rule="evenodd" clip-rule="evenodd" d="M4.44821 11.8932C5.66193 14.8058 7.88708 16.1655 11.1237 15.9721C12.0322 15.8705 12.9033 15.564 13.6666 15.0774C14.7994 15.8511 15.8858 16.68 16.9258 17.5642C15.2779 18.994 13.1768 19.8424 10.9653 19.9709C10.4628 20.0097 9.95799 20.0097 9.45554 19.9709C5.68808 19.5421 2.90639 17.7042 1.11047 14.4571L4.44821 11.8932Z" fill="#43A047"/>
</svg>
